<svg xmlns="http://www.w3.org/2000/svg" viewBox="0 0 800 600">
  <g stroke="#6666aa" fill="none" stroke-width="1" opacity="0.3">
    <polygon points="100,50 150,25 200,50 200,100 150,125 100,100"/>
    <polygon points="300,100 350,75 400,100 400,150 350,175 300,150"/>
    <polygon points="500,50 550,25 600,50 600,100 550,125 500,100"/>
    <polygon points="200,200 250,175 300,200 300,250 250,275 200,250"/>
    <polygon points="400,250 450,225 500,250 500,300 450,325 400,300"/>
    <polygon points="600,200 650,175 700,200 700,250 650,275 600,250"/>
  </g>
</svg>
