<svg xmlns="http://www.w3.org/2000/svg" viewBox="0 0 800 600">
  <g fill="#888888" opacity="0.2">
    <rect x="50" y="100" width="2" height="2"/><rect x="100" y="150" width="2" height="2"/>
    <rect x="150" y="80" width="2" height="2"/><rect x="200" y="200" width="2" height="2"/>
    <rect x="250" y="120" width="2" height="2"/><rect x="300" y="180" width="2" height="2"/>
    <rect x="350" y="90" width="2" height="2"/><rect x="400" y="160" width="2" height="2"/>
    <rect x="450" y="110" width="2" height="2"/><rect x="500" y="190" width="2" height="2"/>
    <rect x="550" y="130" width="2" height="2"/><rect x="600" y="170" width="2" height="2"/>
    <rect x="650" y="100" width="2" height="2"/><rect x="700" y="140" width="2" height="2"/>
    <rect x="750" y="85" width="2" height="2"/>
  </g>
</svg>
