<svg xmlns="http://www.w3.org/2000/svg" viewBox="0 0 800 600">
  <defs>
    <linearGradient id="atlantisGradient" x1="0%" y1="0%" x2="0%" y2="100%">
      <stop offset="0%" style="stop-color:#001a2a;stop-opacity:1"/>
      <stop offset="100%" style="stop-color:#002a3a;stop-opacity:1"/>
    </linearGradient>
  </defs>
  
  <rect width="800" height="600" fill="url(#atlantisGradient)"/>
  
  <!-- Ancient columns -->
  <g fill="#334455" opacity="0.4">
    <rect x="50" y="200" width="30" height="400"/>
    <rect x="200" y="250" width="35" height="350"/>
    <rect x="350" y="180" width="40" height="420"/>
    <rect x="500" y="220" width="35" height="380"/>
    <rect x="650" y="200" width="30" height="400"/>
  </g>
  
  <!-- Column capitals -->
  <g fill="#445566" opacity="0.5">
    <rect x="40" y="185" width="50" height="20"/>
    <rect x="190" y="235" width="55" height="20"/>
    <rect x="340" y="165" width="60" height="20"/>
    <rect x="490" y="205" width="55" height="20"/>
    <rect x="640" y="185" width="50" height="20"/>
  </g>
  
  <!-- Atlantean symbols -->
  <g stroke="#00aacc" fill="none" stroke-width="2" opacity="0.3">
    <circle cx="400" cy="100" r="40"/>
    <polygon points="400,70 370,115 430,115"/>
    <polygon points="400,130 370,85 430,85"/>
  </g>
</svg>
