<svg xmlns="http://www.w3.org/2000/svg" viewBox="0 0 800 600">
  <defs>
    <linearGradient id="seaGrad" x1="0%" y1="0%" x2="0%" y2="100%">
      <stop offset="0%" style="stop-color:#1a3a4a;stop-opacity:1"/>
      <stop offset="100%" style="stop-color:#0a2a3a;stop-opacity:1"/>
    </linearGradient>
  </defs>
  <rect width="800" height="600" fill="url(#seaGrad)"/>
  <g stroke="#2a5a6a" fill="none" stroke-width="2" opacity="0.4">
    <path d="M 0 300 Q 100 280 200 300 Q 300 320 400 300 Q 500 280 600 300 Q 700 320 800 300"/>
    <path d="M 0 350 Q 100 330 200 350 Q 300 370 400 350 Q 500 330 600 350 Q 700 370 800 350"/>
    <path d="M 0 400 Q 100 380 200 400 Q 300 420 400 400 Q 500 380 600 400 Q 700 420 800 400"/>
    <path d="M 0 450 Q 100 430 200 450 Q 300 470 400 450 Q 500 430 600 450 Q 700 470 800 450"/>
    <path d="M 0 500 Q 100 480 200 500 Q 300 520 400 500 Q 500 480 600 500 Q 700 520 800 500"/>
  </g>
</svg>
