<svg xmlns="http://www.w3.org/2000/svg" viewBox="0 0 800 600">
  <g fill="#8a8a7a" opacity="0.2">
    <circle cx="50" cy="520" r="3"/><circle cx="100" cy="540" r="4"/><circle cx="150" cy="510" r="2"/>
    <circle cx="200" cy="530" r="3"/><circle cx="250" cy="545" r="4"/><circle cx="300" cy="515" r="2"/>
    <circle cx="350" cy="535" r="3"/><circle cx="400" cy="525" r="4"/><circle cx="450" cy="540" r="2"/>
    <circle cx="500" cy="520" r="3"/><circle cx="550" cy="535" r="4"/><circle cx="600" cy="515" r="2"/>
    <circle cx="650" cy="530" r="3"/><circle cx="700" cy="545" r="4"/><circle cx="750" cy="520" r="2"/>
    <circle cx="80" cy="480" r="2"/><circle cx="180" cy="490" r="3"/><circle cx="280" cy="475" r="2"/>
    <circle cx="380" cy="485" r="3"/><circle cx="480" cy="495" r="2"/><circle cx="580" cy="480" r="3"/>
    <circle cx="680" cy="490" r="2"/><circle cx="780" cy="485" r="3"/>
  </g>
</svg>
