<svg xmlns="http://www.w3.org/2000/svg" viewBox="0 0 800 600">
  <g stroke="#ccaa66" fill="none" stroke-width="3" opacity="0.4">
    <line x1="400" y1="600" x2="400" y2="300"/>
    <path d="M 400 450 Q 300 400 250 350"/>
    <path d="M 400 450 Q 500 400 550 350"/>
    <path d="M 400 380 Q 320 340 280 300"/>
    <path d="M 400 380 Q 480 340 520 300"/>
    <path d="M 250 350 Q 200 320 180 280"/>
    <path d="M 550 350 Q 600 320 620 280"/>
    <path d="M 280 300 Q 240 270 220 230"/>
    <path d="M 520 300 Q 560 270 580 230"/>
    <path d="M 400 320 Q 360 280 340 240"/>
    <path d="M 400 320 Q 440 280 460 240"/>
  </g>
</svg>
